<svg width="544" height="186" viewBox="0 0 544 186" fill="none" xmlns="http://www.w3.org/2000/svg">
<ellipse cx="81.1321" cy="89.9355" rx="81.0536" ry="82.5288" fill="#C5F1BA"/>
<path d="M28.9889 47.4787H62.7007V49.2185V84.5957M62.7007 141.081V84.5957M62.7007 84.5957H104.024M104.024 38.7902V106.344C105.314 114.452 100.124 133.175 133.275 130.702" stroke="#1D580E" stroke-width="16"/>
<path d="M210.617 26.27L198.319 26.012C185.763 26.012 179.485 28.764 179.485 34.268C179.485 35.7013 180.001 36.8767 181.033 37.794C182.122 38.654 183.727 39.084 185.849 39.084C187.97 39.084 190.751 38.1093 194.191 36.16L195.481 38.396C193.703 40.288 191.697 41.7787 189.461 42.868C187.225 43.9573 184.989 44.502 182.753 44.502C180.517 44.502 178.596 43.7567 176.991 42.266C175.385 40.7753 174.583 38.912 174.583 36.676C174.583 32.1467 177.019 28.1907 181.893 24.808C186.823 21.4253 193.474 19.734 201.845 19.734C202.533 19.734 204.998 19.8487 209.241 20.078C213.483 20.3073 216.837 20.422 219.303 20.422C221.768 20.422 224.033 20.0493 226.097 19.304C226.899 19.0747 227.387 18.96 227.559 18.96C228.361 18.96 228.763 19.476 228.763 20.508C228.763 21.9987 227.444 23.346 224.807 24.55C222.227 25.754 219.245 26.356 215.863 26.356C212.079 30.0253 208.753 36.4467 205.887 45.62C203.077 54.736 199.695 61.702 195.739 66.518C191.84 71.2767 187.196 73.656 181.807 73.656C179.685 73.656 177.679 72.968 175.787 71.592L177.765 68.324C178.453 68.668 179.227 68.9833 180.087 69.27L181.291 69.442C181.577 69.4993 182.007 69.528 182.581 69.528C185.447 69.528 187.999 68.152 190.235 65.4C192.528 62.648 194.907 57.4593 197.373 49.834C199.895 42.1513 201.845 37.0773 203.221 34.612C204.654 32.0893 207.119 29.3087 210.617 26.27ZM232.888 63.852L234.866 65.4C233.089 67.8653 230.652 69.9293 227.556 71.592C224.46 73.1973 221.45 74 218.526 74C215.602 74 213.251 73.14 211.474 71.42C209.697 69.7 208.808 67.4353 208.808 64.626C208.808 59.3513 211.589 54.1627 217.15 49.06C222.769 43.9573 228.445 41.406 234.178 41.406C237.962 41.406 239.854 42.8967 239.854 45.878C239.854 48.974 237.847 52.0987 233.834 55.252C229.878 58.4053 224.288 61.272 217.064 63.852C217.58 65.1707 218.383 66.2027 219.472 66.948C220.561 67.6933 221.679 68.066 222.826 68.066C225.291 68.066 228.645 66.6613 232.888 63.852ZM216.634 61.272C221.278 59.6667 225.263 57.66 228.588 55.252C231.913 52.844 233.576 50.6367 233.576 48.63C233.576 47.8847 233.289 47.2253 232.716 46.652C232.143 46.0787 231.483 45.792 230.738 45.792C228.043 45.792 225.119 47.4833 221.966 50.866C218.87 54.1913 217.093 57.66 216.634 61.272ZM265.642 43.556C267.075 43.556 268.25 44.0433 269.168 45.018C270.085 45.9927 270.544 47.254 270.544 48.802C270.544 51.898 268.766 55.166 265.212 58.606L263.148 56.972C263.95 55.1947 264.352 53.9047 264.352 53.102C264.352 51.554 263.492 50.78 261.772 50.78C260.052 50.78 258.418 51.8693 256.87 54.048C255.322 56.2267 253.487 59.6093 251.366 64.196C249.302 68.7253 247.725 71.936 246.636 73.828L241.734 71.678C244.887 64.5113 246.693 60.2973 247.152 59.036C248.7 54.564 249.474 48.888 249.474 42.008L254.29 40.718C254.118 44.4447 253.86 47.34 253.516 49.404C253.172 51.4107 252.34 54.7073 251.022 59.294C256.812 48.802 261.686 43.556 265.642 43.556ZM309.026 65.314L311.004 66.776C310.201 68.496 308.711 70.13 306.532 71.678C304.411 73.226 302.461 74 300.684 74C297.301 74 295.61 72.2227 295.61 68.668C295.61 67.0053 296.04 65.0273 296.9 62.734L293.718 66.002C290.622 69.1553 287.927 71.2767 285.634 72.366C283.398 73.4553 281.191 74 279.012 74C276.833 74 275.171 73.398 274.024 72.194C272.935 70.9327 272.39 69.2127 272.39 67.034C272.39 63.0207 273.938 59.0647 277.034 55.166C280.13 51.21 284.086 47.9993 288.902 45.534C293.718 43.0687 298.534 41.8073 303.35 41.75L303.522 44.588L299.91 45.362C294.693 46.5087 290.077 48.802 286.064 52.242C282.108 55.682 280.13 59.122 280.13 62.562C280.13 65.9447 281.506 67.636 284.258 67.636C286.838 67.636 290.02 65.83 293.804 62.218C297.588 58.606 300.741 54.3633 303.264 49.49L306.876 51.64C303.321 58.8067 301.544 63.3647 301.544 65.314C301.544 66.1167 301.802 66.8047 302.318 67.378C302.891 67.894 303.436 68.152 303.952 68.152C304.525 68.152 304.898 68.1233 305.07 68.066C305.242 68.0087 305.414 67.9513 305.586 67.894C305.758 67.7793 305.959 67.636 306.188 67.464C306.475 67.292 306.704 67.12 306.876 66.948C307.105 66.776 307.449 66.518 307.908 66.174C308.367 65.83 308.739 65.5433 309.026 65.314ZM325.259 58.176C329.616 51.64 333.4 47.1967 336.611 44.846C339.821 42.438 342.631 41.234 345.039 41.234C347.447 41.234 349.31 41.9793 350.629 43.47C351.947 44.9033 352.607 46.738 352.607 48.974C352.607 55.166 350.371 60.8993 345.899 66.174C341.484 71.3913 336.496 74 330.935 74C328.469 74 326.52 73.57 325.087 72.71L327.151 69.012C330.132 69.4133 331.995 69.614 332.741 69.614C335.837 69.614 338.732 67.808 341.427 64.196C344.121 60.584 345.469 56.886 345.469 53.102C345.469 51.6687 345.039 50.4933 344.179 49.576C343.376 48.6013 342.315 48.114 340.997 48.114C337.843 48.114 334.26 50.8947 330.247 56.456C326.291 62.0173 322.564 68.8973 319.067 77.096C315.627 85.352 312.617 94.124 310.037 103.412L304.877 101.606C304.991 101.262 306.081 98.2807 308.145 92.662C310.151 87.1007 312.129 81.568 314.079 76.064C319.468 60.928 322.163 52.6433 322.163 51.21C322.163 47.5407 321.417 44.2153 319.927 41.234L324.227 39.084C326.004 41.5493 326.893 44.158 326.893 46.91C326.893 49.6047 326.348 53.36 325.259 58.176ZM372.569 37.536C369.358 37.536 367.753 36.246 367.753 33.666C367.753 32.2327 368.154 31.0287 368.957 30.054C369.759 29.0793 370.791 28.592 372.053 28.592C373.314 28.592 374.346 28.9647 375.149 29.71C375.951 30.4553 376.353 31.43 376.353 32.634C376.353 33.838 376.009 34.956 375.321 35.988C374.633 37.02 373.715 37.536 372.569 37.536ZM371.451 62.906L373.171 64.368C371.795 67.0053 369.96 69.27 367.667 71.162C365.431 72.9967 363.395 73.914 361.561 73.914C358.35 73.914 356.745 71.678 356.745 67.206C356.745 61.6447 359.038 54.392 363.625 45.448C364.657 43.4987 365.259 42.352 365.431 42.008L369.129 44.244C367.925 46.4227 366.434 49.8913 364.657 54.65C362.937 59.4087 362.077 62.476 362.077 63.852C362.077 65.1707 362.363 66.1167 362.937 66.69C363.51 67.2633 364.198 67.55 365.001 67.55C366.549 67.55 368.699 66.002 371.451 62.906ZM414.93 65.314L416.908 66.776C416.106 68.496 414.615 70.13 412.436 71.678C410.315 73.226 408.366 74 406.588 74C403.206 74 401.514 72.2227 401.514 68.668C401.514 67.0053 401.944 65.0273 402.804 62.734L399.622 66.002C396.526 69.1553 393.832 71.2767 391.538 72.366C389.302 73.4553 387.095 74 384.916 74C382.738 74 381.075 73.398 379.928 72.194C378.839 70.9327 378.294 69.2127 378.294 67.034C378.294 63.0207 379.842 59.0647 382.938 55.166C386.034 51.21 389.99 47.9993 394.806 45.534C399.622 43.0687 404.438 41.8073 409.254 41.75L409.426 44.588L405.814 45.362C400.597 46.5087 395.982 48.802 391.968 52.242C388.012 55.682 386.034 59.122 386.034 62.562C386.034 65.9447 387.41 67.636 390.162 67.636C392.742 67.636 395.924 65.83 399.708 62.218C403.492 58.606 406.646 54.3633 409.168 49.49L412.78 51.64C409.226 58.8067 407.448 63.3647 407.448 65.314C407.448 66.1167 407.706 66.8047 408.222 67.378C408.796 67.894 409.34 68.152 409.856 68.152C410.43 68.152 410.802 68.1233 410.974 68.066C411.146 68.0087 411.318 67.9513 411.49 67.894C411.662 67.7793 411.863 67.636 412.092 67.464C412.379 67.292 412.608 67.12 412.78 66.948C413.01 66.776 413.354 66.518 413.812 66.174C414.271 65.83 414.644 65.5433 414.93 65.314ZM446.471 40.374L445.697 43.728C444.722 43.6133 443.461 43.556 441.913 43.556C436.18 43.556 433.313 45.448 433.313 49.232C433.313 50.0347 434.46 52.3853 436.753 56.284C439.104 60.1827 440.279 62.7913 440.279 64.11C440.279 67.206 439.218 69.6427 437.097 71.42C435.033 73.14 432.252 74 428.755 74C423.939 74 420.069 71.334 417.145 66.002L420.413 63.68C421.216 64.3107 422.076 65.0847 422.993 66.002C423.91 66.862 424.598 67.464 425.057 67.808C426.146 68.7827 427.35 69.27 428.669 69.27C429.988 69.27 431.134 68.8113 432.109 67.894C433.084 66.9193 433.571 65.744 433.571 64.368C433.571 62.9347 432.31 60.2973 429.787 56.456C427.322 52.6147 426.089 49.92 426.089 48.372C426.089 45.5627 427.264 43.4127 429.615 41.922C432.023 40.4313 435.148 39.686 438.989 39.686C442.888 39.686 445.382 39.9153 446.471 40.374Z" fill="#B1FEB9"/>
<path d="M259.366 88.3138L263.236 90.2058C259.395 97.7164 255.41 107.377 251.282 119.188C253.92 119.188 255.726 119.302 256.7 119.532L256.356 124.434C255.152 124.835 252.802 125.036 249.304 125.036C248.1 128.361 247.384 131.056 247.154 133.12C246.925 135.184 246.724 137.19 246.552 139.14C246.438 141.089 246.352 142.408 246.294 143.096H241.478C241.192 142.121 241.048 141.118 241.048 140.086C241.048 136.531 241.994 131.514 243.886 125.036C240.446 125.036 235.229 125.437 228.234 126.24C227.948 127.157 227.231 128.877 226.084 131.4C224.938 133.865 223.791 136.015 222.644 137.85C221.555 139.684 220.064 141.691 218.172 143.87C216.28 146.048 214.302 147.883 212.238 149.374C206.333 153.616 200.6 155.738 195.038 155.738C192.745 155.738 190.853 155.021 189.362 153.588C187.872 152.154 187.126 150.348 187.126 148.17C187.126 142.666 190.28 137.678 196.586 133.206C202.95 128.676 211.751 125.064 222.988 122.37C227.231 109.986 233.194 101.156 240.876 95.8818C232.563 95.9964 225.712 97.4011 220.322 100.096C214.933 102.79 212.238 106.23 212.238 110.416C212.238 111.734 212.439 112.881 212.84 113.856C213.242 114.773 214.188 116.235 215.678 118.242L212.754 120.994C210.232 119.388 208.311 117.439 206.992 115.146C205.674 112.852 205.014 110.645 205.014 108.524C205.014 104.969 206.906 101.701 210.69 98.7198C214.474 95.6811 219.176 93.3591 224.794 91.7538C230.413 90.0911 236.118 89.2598 241.908 89.2598C244.832 89.2598 246.839 89.4891 247.928 89.9478C249.075 90.3491 249.648 91.1518 249.648 92.3558C249.648 93.5024 248.817 94.5918 247.154 95.6238C239.988 100.096 234.226 108.581 229.868 121.08C233.251 120.506 238.497 119.876 245.606 119.188C248.358 111.161 250.566 105.227 252.228 101.386C253.948 97.4871 256.328 93.1298 259.366 88.3138ZM201.918 149.804C204.04 149.804 206.505 148.858 209.314 146.966C212.181 145.131 214.56 142.723 216.452 139.742C218.402 136.703 220.064 132.546 221.44 127.272C213.815 128.533 207.652 130.769 202.95 133.98C198.306 137.133 195.984 140.716 195.984 144.73C195.984 146.335 196.443 147.568 197.36 148.428C198.335 149.345 199.854 149.804 201.918 149.804ZM291.203 117.554C292.694 120.019 293.439 122.742 293.439 125.724C293.439 130.368 291.834 134.524 288.623 138.194C285.413 141.806 281.629 143.612 277.271 143.612C273.946 143.612 271.337 142.666 269.445 140.774C267.611 138.824 266.693 136.158 266.693 132.776C266.693 127.329 268.815 122.456 273.057 118.156C277.3 113.798 282.059 111.62 287.333 111.62C288.308 111.62 288.996 111.648 289.397 111.706L289.655 114.544C285.069 114.544 281.256 115.862 278.217 118.5C275.179 121.137 273.659 124.52 273.659 128.648C273.659 131.113 274.261 133.12 275.465 134.668C276.669 136.158 278.418 136.904 280.711 136.904C283.062 136.904 284.925 135.872 286.301 133.808C287.677 131.744 288.365 129.336 288.365 126.584C288.365 123.774 287.821 121.223 286.731 118.93L291.203 117.554ZM308.58 134.84L310.386 136.302C308.437 139.34 306.745 141.548 305.312 142.924C303.936 144.242 302.388 144.902 300.668 144.902C298.948 144.902 297.543 144.214 296.454 142.838C295.365 141.462 294.82 139.742 294.82 137.678C294.82 133.664 297.457 125.036 302.732 111.792C308.007 98.4904 313.425 86.7944 318.986 76.7038L322.77 78.7678C317.151 89.6611 312.077 100.497 307.548 111.276C303.019 121.997 300.754 129.708 300.754 134.41C300.754 137.104 301.757 138.452 303.764 138.452C305.369 138.452 306.975 137.248 308.58 134.84ZM335.798 132.002L337.518 133.464C336.142 136.101 334.307 138.366 332.014 140.258C329.778 142.092 327.742 143.01 325.908 143.01C322.697 143.01 321.092 140.774 321.092 136.302C321.092 130.74 323.385 123.488 327.972 114.544C329.004 112.594 329.606 111.448 329.778 111.104L333.476 113.34C332.272 115.518 330.781 118.987 329.004 123.746C327.284 128.504 326.424 131.572 326.424 132.948C326.424 134.266 326.71 135.212 327.284 135.786C327.857 136.359 328.545 136.646 329.348 136.646C330.896 136.646 333.046 135.098 335.798 132.002ZM341.13 103.278L326.424 108.094L323.93 106.546L335.282 99.8378L341.13 103.278ZM371.409 109.47L370.635 112.824C369.66 112.709 368.399 112.652 366.851 112.652C361.118 112.652 358.251 114.544 358.251 118.328C358.251 119.13 359.398 121.481 361.691 125.38C364.042 129.278 365.217 131.887 365.217 133.206C365.217 136.302 364.156 138.738 362.035 140.516C359.971 142.236 357.19 143.096 353.693 143.096C348.877 143.096 345.007 140.43 342.083 135.098L345.351 132.776C346.154 133.406 347.014 134.18 347.931 135.098C348.848 135.958 349.536 136.56 349.995 136.904C351.084 137.878 352.288 138.366 353.607 138.366C354.926 138.366 356.072 137.907 357.047 136.99C358.022 136.015 358.509 134.84 358.509 133.464C358.509 132.03 357.248 129.393 354.725 125.552C352.26 121.71 351.027 119.016 351.027 117.468C351.027 114.658 352.202 112.508 354.553 111.018C356.961 109.527 360.086 108.782 363.927 108.782C367.826 108.782 370.32 109.011 371.409 109.47ZM391.882 133.464L393.774 135.614C392.34 137.85 390.592 139.598 388.528 140.86C386.521 142.121 384.486 142.752 382.422 142.752C380.358 142.752 378.724 142.178 377.52 141.032C376.316 139.828 375.714 138.194 375.714 136.13C375.714 131.314 377.52 124.663 381.132 116.178C378.208 116.636 375.284 117.324 372.36 118.242L371.758 114.888L371.672 114.802C374.538 113.598 378.294 112.623 382.938 111.878C383.396 111.018 384.428 108.925 386.034 105.6C389.244 99.0064 391.538 94.7351 392.914 92.7858L396.612 94.2478C396.038 95.5091 395.035 97.6304 393.602 100.612C392.168 103.536 390.563 106.861 388.786 110.588C391.366 110.416 393.401 110.33 394.892 110.33C396.382 110.33 397.529 110.559 398.332 111.018V114.716C397.529 114.544 396.354 114.458 394.806 114.458C393.315 114.458 390.62 114.716 386.722 115.232C383.339 122.8 381.648 128.304 381.648 131.744C381.648 133.062 382.049 134.152 382.852 135.012C383.712 135.872 384.83 136.302 386.206 136.302C387.639 136.302 389.531 135.356 391.882 133.464ZM417.688 106.632C414.478 106.632 412.872 105.342 412.872 102.762C412.872 101.328 413.274 100.124 414.076 99.1498C414.879 98.1751 415.911 97.6878 417.172 97.6878C418.434 97.6878 419.466 98.0604 420.268 98.8058C421.071 99.5511 421.472 100.526 421.472 101.73C421.472 102.934 421.128 104.052 420.44 105.084C419.752 106.116 418.835 106.632 417.688 106.632ZM416.57 132.002L418.29 133.464C416.914 136.101 415.08 138.366 412.786 140.258C410.55 142.092 408.515 143.01 406.68 143.01C403.47 143.01 401.864 140.774 401.864 136.302C401.864 130.74 404.158 123.488 408.744 114.544C409.776 112.594 410.378 111.448 410.55 111.104L414.248 113.34C413.044 115.518 411.554 118.987 409.776 123.746C408.056 128.504 407.196 131.572 407.196 132.948C407.196 134.266 407.483 135.212 408.056 135.786C408.63 136.359 409.318 136.646 410.12 136.646C411.668 136.646 413.818 135.098 416.57 132.002ZM446.462 130.884L448.526 132.604C447.15 135.757 444.943 138.28 441.904 140.172C438.865 142.064 435.913 143.01 433.046 143.01C430.237 143.01 427.886 142.121 425.994 140.344C424.159 138.566 423.242 136.13 423.242 133.034C423.242 129.938 424.589 126.584 427.284 122.972C429.979 119.36 433.447 116.378 437.69 114.028C441.99 111.677 446.204 110.502 450.332 110.502C450.905 110.502 451.765 110.559 452.912 110.674L452.654 114.028C446.347 114.314 441.101 116.235 436.916 119.79C432.788 123.344 430.724 127.128 430.724 131.142C430.724 132.804 431.24 134.152 432.272 135.184C433.304 136.216 434.651 136.732 436.314 136.732C438.951 136.732 442.334 134.782 446.462 130.884ZM491.46 134.41L493.438 135.872C492.636 137.592 491.145 139.226 488.966 140.774C486.845 142.322 484.896 143.096 483.118 143.096C479.736 143.096 478.044 141.318 478.044 137.764C478.044 136.101 478.474 134.123 479.334 131.83L476.152 135.098C473.056 138.251 470.362 140.372 468.068 141.462C465.832 142.551 463.625 143.096 461.446 143.096C459.268 143.096 457.605 142.494 456.458 141.29C455.369 140.028 454.824 138.308 454.824 136.13C454.824 132.116 456.372 128.16 459.468 124.262C462.564 120.306 466.52 117.095 471.336 114.63C476.152 112.164 480.968 110.903 485.784 110.846L485.956 113.684L482.344 114.458C477.127 115.604 472.512 117.898 468.498 121.338C464.542 124.778 462.564 128.218 462.564 131.658C462.564 135.04 463.94 136.732 466.692 136.732C469.272 136.732 472.454 134.926 476.238 131.314C480.022 127.702 483.176 123.459 485.698 118.586L489.31 120.736C485.756 127.902 483.978 132.46 483.978 134.41C483.978 135.212 484.236 135.9 484.752 136.474C485.326 136.99 485.87 137.248 486.386 137.248C486.96 137.248 487.332 137.219 487.504 137.162C487.676 137.104 487.848 137.047 488.02 136.99C488.192 136.875 488.393 136.732 488.622 136.56C488.909 136.388 489.138 136.216 489.31 136.044C489.54 135.872 489.884 135.614 490.342 135.27C490.801 134.926 491.174 134.639 491.46 134.41ZM523.001 109.47L522.227 112.824C521.252 112.709 519.991 112.652 518.443 112.652C512.709 112.652 509.843 114.544 509.843 118.328C509.843 119.13 510.989 121.481 513.283 125.38C515.633 129.278 516.809 131.887 516.809 133.206C516.809 136.302 515.748 138.738 513.627 140.516C511.563 142.236 508.782 143.096 505.285 143.096C500.469 143.096 496.599 140.43 493.675 135.098L496.943 132.776C497.745 133.406 498.605 134.18 499.523 135.098C500.44 135.958 501.128 136.56 501.587 136.904C502.676 137.878 503.88 138.366 505.199 138.366C506.517 138.366 507.664 137.907 508.639 136.99C509.613 136.015 510.101 134.84 510.101 133.464C510.101 132.03 508.839 129.393 506.317 125.552C503.851 121.71 502.619 119.016 502.619 117.468C502.619 114.658 503.794 112.508 506.145 111.018C508.553 109.527 511.677 108.782 515.519 108.782C519.417 108.782 521.911 109.011 523.001 109.47Z" fill="#B1FEB9"/>
</svg>
