<svg width="512" height="171" viewBox="0 0 512 171" fill="none" xmlns="http://www.w3.org/2000/svg">
<circle cx="76.8492" cy="83.0991" r="76.1644" fill="#1D580E"/>
<path d="M27.8513 43.9164H59.5296V45.522V78.171M59.5296 130.3V78.171M59.5296 78.171H98.3601M98.3601 35.8979V98.2421C99.5727 105.724 94.6953 123.004 125.847 120.722" stroke="#ECFBE9" stroke-width="16"/>
<path d="M200.852 26.3691L188.554 26.1111C175.998 26.1111 169.72 28.8631 169.72 34.3671C169.72 35.8005 170.236 36.9758 171.268 37.8931C172.358 38.7531 173.963 39.1831 176.084 39.1831C178.206 39.1831 180.986 38.2085 184.426 36.2591L185.716 38.4951C183.939 40.3871 181.932 41.8778 179.696 42.9671C177.46 44.0565 175.224 44.6011 172.988 44.6011C170.752 44.6011 168.832 43.8558 167.226 42.3651C165.621 40.8745 164.818 39.0111 164.818 36.7751C164.818 32.2458 167.255 28.2898 172.128 24.9071C177.059 21.5245 183.71 19.8331 192.08 19.8331C192.768 19.8331 195.234 19.9478 199.476 20.1771C203.719 20.4065 207.073 20.5211 209.538 20.5211C212.004 20.5211 214.268 20.1485 216.332 19.4031C217.135 19.1738 217.622 19.0591 217.794 19.0591C218.597 19.0591 218.998 19.5751 218.998 20.6071C218.998 22.0978 217.68 23.4451 215.042 24.6491C212.462 25.8531 209.481 26.4551 206.098 26.4551C202.314 30.1245 198.989 36.5458 196.122 45.7191C193.313 54.8351 189.93 61.8011 185.974 66.6171C182.076 71.3758 177.432 73.7551 172.042 73.7551C169.921 73.7551 167.914 73.0671 166.022 71.6911L168 68.4231C168.688 68.7671 169.462 69.0825 170.322 69.3691L171.526 69.5411C171.813 69.5985 172.243 69.6271 172.816 69.6271C175.683 69.6271 178.234 68.2511 180.47 65.4991C182.764 62.7471 185.143 57.5585 187.608 49.9331C190.131 42.2505 192.08 37.1765 193.456 34.7111C194.89 32.1885 197.355 29.4078 200.852 26.3691ZM223.124 63.9511L225.102 65.4991C223.324 67.9645 220.888 70.0285 217.792 71.6911C214.696 73.2965 211.686 74.0991 208.762 74.0991C205.838 74.0991 203.487 73.2391 201.71 71.5191C199.932 69.7991 199.044 67.5345 199.044 64.7251C199.044 59.4505 201.824 54.2618 207.386 49.1591C213.004 44.0565 218.68 41.5051 224.414 41.5051C228.198 41.5051 230.09 42.9958 230.09 45.9771C230.09 49.0731 228.083 52.1978 224.07 55.3511C220.114 58.5045 214.524 61.3711 207.3 63.9511C207.816 65.2698 208.618 66.3018 209.708 67.0471C210.797 67.7925 211.915 68.1651 213.062 68.1651C215.527 68.1651 218.881 66.7605 223.124 63.9511ZM206.87 61.3711C211.514 59.7658 215.498 57.7591 218.824 55.3511C222.149 52.9431 223.812 50.7358 223.812 48.7291C223.812 47.9838 223.525 47.3245 222.952 46.7511C222.378 46.1778 221.719 45.8911 220.974 45.8911C218.279 45.8911 215.355 47.5825 212.202 50.9651C209.106 54.2905 207.328 57.7591 206.87 61.3711ZM255.878 43.6551C257.311 43.6551 258.486 44.1425 259.404 45.1171C260.321 46.0918 260.78 47.3531 260.78 48.9011C260.78 51.9971 259.002 55.2651 255.448 58.7051L253.384 57.0711C254.186 55.2938 254.588 54.0038 254.588 53.2011C254.588 51.6531 253.728 50.8791 252.008 50.8791C250.288 50.8791 248.654 51.9685 247.106 54.1471C245.558 56.3258 243.723 59.7085 241.602 64.2951C239.538 68.8245 237.961 72.0351 236.872 73.9271L231.97 71.7771C235.123 64.6105 236.929 60.3965 237.388 59.1351C238.936 54.6631 239.71 48.9871 239.71 42.1071L244.526 40.8171C244.354 44.5438 244.096 47.4391 243.752 49.5031C243.408 51.5098 242.576 54.8065 241.258 59.3931C247.048 48.9011 251.922 43.6551 255.878 43.6551ZM299.262 65.4131L301.24 66.8751C300.437 68.5951 298.947 70.2291 296.768 71.7771C294.647 73.3251 292.697 74.0991 290.92 74.0991C287.537 74.0991 285.846 72.3218 285.846 68.7671C285.846 67.1045 286.276 65.1265 287.136 62.8331L283.954 66.1011C280.858 69.2545 278.163 71.3758 275.87 72.4651C273.634 73.5545 271.427 74.0991 269.248 74.0991C267.069 74.0991 265.407 73.4971 264.26 72.2931C263.171 71.0318 262.626 69.3118 262.626 67.1331C262.626 63.1198 264.174 59.1638 267.27 55.2651C270.366 51.3091 274.322 48.0985 279.138 45.6331C283.954 43.1678 288.77 41.9065 293.586 41.8491L293.758 44.6871L290.146 45.4611C284.929 46.6078 280.313 48.9011 276.3 52.3411C272.344 55.7811 270.366 59.2211 270.366 62.6611C270.366 66.0438 271.742 67.7351 274.494 67.7351C277.074 67.7351 280.256 65.9291 284.04 62.3171C287.824 58.7051 290.977 54.4625 293.5 49.5891L297.112 51.7391C293.557 58.9058 291.78 63.4638 291.78 65.4131C291.78 66.2158 292.038 66.9038 292.554 67.4771C293.127 67.9931 293.672 68.2511 294.188 68.2511C294.761 68.2511 295.134 68.2225 295.306 68.1651C295.478 68.1078 295.65 68.0505 295.822 67.9931C295.994 67.8785 296.195 67.7351 296.424 67.5631C296.711 67.3911 296.94 67.2191 297.112 67.0471C297.341 66.8751 297.685 66.6171 298.144 66.2731C298.603 65.9291 298.975 65.6425 299.262 65.4131ZM315.494 58.2751C319.852 51.7391 323.636 47.2958 326.846 44.9451C330.057 42.5371 332.866 41.3331 335.274 41.3331C337.682 41.3331 339.546 42.0785 340.864 43.5691C342.183 45.0025 342.842 46.8371 342.842 49.0731C342.842 55.2651 340.606 60.9985 336.134 66.2731C331.72 71.4905 326.732 74.0991 321.17 74.0991C318.705 74.0991 316.756 73.6691 315.322 72.8091L317.386 69.1111C320.368 69.5125 322.231 69.7131 322.976 69.7131C326.072 69.7131 328.968 67.9071 331.662 64.2951C334.357 60.6831 335.704 56.9851 335.704 53.2011C335.704 51.7678 335.274 50.5925 334.414 49.6751C333.612 48.7005 332.551 48.2131 331.232 48.2131C328.079 48.2131 324.496 50.9938 320.482 56.5551C316.526 62.1165 312.8 68.9965 309.302 77.1951C305.862 85.4511 302.852 94.2231 300.272 103.511L295.112 101.705C295.227 101.361 296.316 98.3798 298.38 92.7611C300.387 87.1998 302.365 81.6671 304.314 76.1631C309.704 61.0271 312.398 52.7425 312.398 51.3091C312.398 47.6398 311.653 44.3145 310.162 41.3331L314.462 39.1831C316.24 41.6485 317.128 44.2571 317.128 47.0091C317.128 49.7038 316.584 53.4591 315.494 58.2751ZM362.804 37.6351C359.594 37.6351 357.988 36.3451 357.988 33.7651C357.988 32.3318 358.39 31.1278 359.192 30.1531C359.995 29.1785 361.027 28.6911 362.288 28.6911C363.55 28.6911 364.582 29.0638 365.384 29.8091C366.187 30.5545 366.588 31.5291 366.588 32.7331C366.588 33.9371 366.244 35.0551 365.556 36.0871C364.868 37.1191 363.951 37.6351 362.804 37.6351ZM361.686 63.0051L363.406 64.4671C362.03 67.1045 360.196 69.3691 357.902 71.2611C355.666 73.0958 353.631 74.0131 351.796 74.0131C348.586 74.0131 346.98 71.7771 346.98 67.3051C346.98 61.7438 349.274 54.4911 353.86 45.5471C354.892 43.5978 355.494 42.4511 355.666 42.1071L359.364 44.3431C358.16 46.5218 356.67 49.9905 354.892 54.7491C353.172 59.5078 352.312 62.5751 352.312 63.9511C352.312 65.2698 352.599 66.2158 353.172 66.7891C353.746 67.3625 354.434 67.6491 355.236 67.6491C356.784 67.6491 358.934 66.1011 361.686 63.0051ZM405.166 65.4131L407.144 66.8751C406.342 68.5951 404.851 70.2291 402.672 71.7771C400.551 73.3251 398.602 74.0991 396.824 74.0991C393.442 74.0991 391.75 72.3218 391.75 68.7671C391.75 67.1045 392.18 65.1265 393.04 62.8331L389.858 66.1011C386.762 69.2545 384.068 71.3758 381.774 72.4651C379.538 73.5545 377.331 74.0991 375.152 74.0991C372.974 74.0991 371.311 73.4971 370.164 72.2931C369.075 71.0318 368.53 69.3118 368.53 67.1331C368.53 63.1198 370.078 59.1638 373.174 55.2651C376.27 51.3091 380.226 48.0985 385.042 45.6331C389.858 43.1678 394.674 41.9065 399.49 41.8491L399.662 44.6871L396.05 45.4611C390.833 46.6078 386.218 48.9011 382.204 52.3411C378.248 55.7811 376.27 59.2211 376.27 62.6611C376.27 66.0438 377.646 67.7351 380.398 67.7351C382.978 67.7351 386.16 65.9291 389.944 62.3171C393.728 58.7051 396.882 54.4625 399.404 49.5891L403.016 51.7391C399.462 58.9058 397.684 63.4638 397.684 65.4131C397.684 66.2158 397.942 66.9038 398.458 67.4771C399.032 67.9931 399.576 68.2511 400.092 68.2511C400.666 68.2511 401.038 68.2225 401.21 68.1651C401.382 68.1078 401.554 68.0505 401.726 67.9931C401.898 67.8785 402.099 67.7351 402.328 67.5631C402.615 67.3911 402.844 67.2191 403.016 67.0471C403.246 66.8751 403.59 66.6171 404.048 66.2731C404.507 65.9291 404.88 65.6425 405.166 65.4131ZM436.707 40.4731L435.933 43.8271C434.958 43.7125 433.697 43.6551 432.149 43.6551C426.415 43.6551 423.549 45.5471 423.549 49.3311C423.549 50.1338 424.695 52.4845 426.989 56.3831C429.339 60.2818 430.515 62.8905 430.515 64.2091C430.515 67.3051 429.454 69.7418 427.333 71.5191C425.269 73.2391 422.488 74.0991 418.991 74.0991C414.175 74.0991 410.305 71.4331 407.381 66.1011L410.649 63.7791C411.451 64.4098 412.311 65.1838 413.229 66.1011C414.146 66.9611 414.834 67.5631 415.293 67.9071C416.382 68.8818 417.586 69.3691 418.905 69.3691C420.223 69.3691 421.37 68.9105 422.345 67.9931C423.319 67.0185 423.807 65.8431 423.807 64.4671C423.807 63.0338 422.545 60.3965 420.023 56.5551C417.557 52.7138 416.325 50.0191 416.325 48.4711C416.325 45.6618 417.5 43.5118 419.851 42.0211C422.259 40.5305 425.383 39.7851 429.225 39.7851C433.123 39.7851 435.617 40.0145 436.707 40.4731Z" fill="#016A0C"/>
<path d="M248.223 83.0844L252.093 84.9764C248.252 92.4871 244.267 102.148 240.139 113.958C242.776 113.958 244.582 114.073 245.557 114.302L245.213 119.204C244.009 119.606 241.658 119.806 238.161 119.806C236.957 123.132 236.24 125.826 236.011 127.89C235.782 129.954 235.581 131.961 235.409 133.91C235.294 135.86 235.208 137.178 235.151 137.866H230.335C230.048 136.892 229.905 135.888 229.905 134.856C229.905 131.302 230.851 126.285 232.743 119.806C229.303 119.806 224.086 120.208 217.091 121.01C216.804 121.928 216.088 123.648 214.941 126.17C213.794 128.636 212.648 130.786 211.501 132.62C210.412 134.455 208.921 136.462 207.029 138.64C205.137 140.819 203.159 142.654 201.095 144.144C195.19 148.387 189.456 150.508 183.895 150.508C181.602 150.508 179.71 149.792 178.219 148.358C176.728 146.925 175.983 145.119 175.983 142.94C175.983 137.436 179.136 132.448 185.443 127.976C191.807 123.447 200.608 119.835 211.845 117.14C216.088 104.756 222.05 95.9271 229.733 90.6524C221.42 90.7671 214.568 92.1717 209.179 94.8664C203.79 97.5611 201.095 101.001 201.095 105.186C201.095 106.505 201.296 107.652 201.697 108.626C202.098 109.544 203.044 111.006 204.535 113.012L201.611 115.764C199.088 114.159 197.168 112.21 195.849 109.916C194.53 107.623 193.871 105.416 193.871 103.294C193.871 99.7397 195.763 96.4717 199.547 93.4904C203.331 90.4517 208.032 88.1297 213.651 86.5244C219.27 84.8617 224.974 84.0304 230.765 84.0304C233.689 84.0304 235.696 84.2597 236.785 84.7184C237.932 85.1197 238.505 85.9224 238.505 87.1264C238.505 88.2731 237.674 89.3624 236.011 90.3944C228.844 94.8664 223.082 103.352 218.725 115.85C222.108 115.277 227.354 114.646 234.463 113.958C237.215 105.932 239.422 99.9977 241.085 96.1564C242.805 92.2577 245.184 87.9004 248.223 83.0844ZM190.775 144.574C192.896 144.574 195.362 143.628 198.171 141.736C201.038 139.902 203.417 137.494 205.309 134.512C207.258 131.474 208.921 127.317 210.297 122.042C202.672 123.304 196.508 125.54 191.807 128.75C187.163 131.904 184.841 135.487 184.841 139.5C184.841 141.106 185.3 142.338 186.217 143.198C187.192 144.116 188.711 144.574 190.775 144.574ZM280.06 112.324C281.55 114.79 282.296 117.513 282.296 120.494C282.296 125.138 280.69 129.295 277.48 132.964C274.269 136.576 270.485 138.382 266.128 138.382C262.802 138.382 260.194 137.436 258.302 135.544C256.467 133.595 255.55 130.929 255.55 127.546C255.55 122.1 257.671 117.226 261.914 112.926C266.156 108.569 270.915 106.39 276.19 106.39C277.164 106.39 277.852 106.419 278.254 106.476L278.512 109.314C273.925 109.314 270.112 110.633 267.074 113.27C264.035 115.908 262.516 119.29 262.516 123.418C262.516 125.884 263.118 127.89 264.322 129.438C265.526 130.929 267.274 131.674 269.568 131.674C271.918 131.674 273.782 130.642 275.158 128.578C276.534 126.514 277.222 124.106 277.222 121.354C277.222 118.545 276.677 115.994 275.588 113.7L280.06 112.324ZM297.437 129.61L299.243 131.072C297.293 134.111 295.602 136.318 294.169 137.694C292.793 139.013 291.245 139.672 289.525 139.672C287.805 139.672 286.4 138.984 285.311 137.608C284.221 136.232 283.677 134.512 283.677 132.448C283.677 128.435 286.314 119.806 291.589 106.562C296.863 93.2611 302.281 81.5651 307.843 71.4744L311.627 73.5384C306.008 84.4317 300.934 95.2677 296.405 106.046C291.875 116.768 289.611 124.479 289.611 129.18C289.611 131.875 290.614 133.222 292.621 133.222C294.226 133.222 295.831 132.018 297.437 129.61ZM324.654 126.772L326.374 128.234C324.998 130.872 323.164 133.136 320.87 135.028C318.634 136.863 316.599 137.78 314.764 137.78C311.554 137.78 309.948 135.544 309.948 131.072C309.948 125.511 312.242 118.258 316.828 109.314C317.86 107.365 318.462 106.218 318.634 105.874L322.332 108.11C321.128 110.289 319.638 113.758 317.86 118.516C316.14 123.275 315.28 126.342 315.28 127.718C315.28 129.037 315.567 129.983 316.14 130.556C316.714 131.13 317.402 131.416 318.204 131.416C319.752 131.416 321.902 129.868 324.654 126.772ZM329.986 98.0484L315.28 102.864L312.786 101.316L324.138 94.6084L329.986 98.0484ZM360.266 104.24L359.492 107.594C358.517 107.48 357.256 107.422 355.708 107.422C349.974 107.422 347.108 109.314 347.108 113.098C347.108 113.901 348.254 116.252 350.548 120.15C352.898 124.049 354.074 126.658 354.074 127.976C354.074 131.072 353.013 133.509 350.892 135.286C348.828 137.006 346.047 137.866 342.55 137.866C337.734 137.866 333.864 135.2 330.94 129.868L334.208 127.546C335.01 128.177 335.87 128.951 336.788 129.868C337.705 130.728 338.393 131.33 338.852 131.674C339.941 132.649 341.145 133.136 342.464 133.136C343.782 133.136 344.929 132.678 345.904 131.76C346.878 130.786 347.366 129.61 347.366 128.234C347.366 126.801 346.104 124.164 343.582 120.322C341.116 116.481 339.884 113.786 339.884 112.238C339.884 109.429 341.059 107.279 343.41 105.788C345.818 104.298 348.942 103.552 352.784 103.552C356.682 103.552 359.176 103.782 360.266 104.24ZM380.738 128.234L382.63 130.384C381.197 132.62 379.448 134.369 377.384 135.63C375.378 136.892 373.342 137.522 371.278 137.522C369.214 137.522 367.58 136.949 366.376 135.802C365.172 134.598 364.57 132.964 364.57 130.9C364.57 126.084 366.376 119.434 369.988 110.948C367.064 111.407 364.14 112.095 361.216 113.012L360.614 109.658L360.528 109.572C363.395 108.368 367.15 107.394 371.794 106.648C372.253 105.788 373.285 103.696 374.89 100.37C378.101 93.7771 380.394 89.5057 381.77 87.5564L385.468 89.0184C384.895 90.2797 383.892 92.4011 382.458 95.3824C381.025 98.3064 379.42 101.632 377.642 105.358C380.222 105.186 382.258 105.1 383.748 105.1C385.239 105.1 386.386 105.33 387.188 105.788V109.486C386.386 109.314 385.21 109.228 383.662 109.228C382.172 109.228 379.477 109.486 375.578 110.002C372.196 117.57 370.504 123.074 370.504 126.514C370.504 127.833 370.906 128.922 371.708 129.782C372.568 130.642 373.686 131.072 375.062 131.072C376.496 131.072 378.388 130.126 380.738 128.234ZM406.545 101.402C403.334 101.402 401.729 100.112 401.729 97.5324C401.729 96.0991 402.13 94.8951 402.933 93.9204C403.736 92.9457 404.768 92.4584 406.029 92.4584C407.29 92.4584 408.322 92.8311 409.125 93.5764C409.928 94.3217 410.329 95.2964 410.329 96.5004C410.329 97.7044 409.985 98.8224 409.297 99.8544C408.609 100.886 407.692 101.402 406.545 101.402ZM405.427 126.772L407.147 128.234C405.771 130.872 403.936 133.136 401.643 135.028C399.407 136.863 397.372 137.78 395.537 137.78C392.326 137.78 390.721 135.544 390.721 131.072C390.721 125.511 393.014 118.258 397.601 109.314C398.633 107.365 399.235 106.218 399.407 105.874L403.105 108.11C401.901 110.289 400.41 113.758 398.633 118.516C396.913 123.275 396.053 126.342 396.053 127.718C396.053 129.037 396.34 129.983 396.913 130.556C397.486 131.13 398.174 131.416 398.977 131.416C400.525 131.416 402.675 129.868 405.427 126.772ZM435.319 125.654L437.383 127.374C436.007 130.528 433.799 133.05 430.761 134.942C427.722 136.834 424.769 137.78 421.903 137.78C419.093 137.78 416.743 136.892 414.851 135.114C413.016 133.337 412.099 130.9 412.099 127.804C412.099 124.708 413.446 121.354 416.141 117.742C418.835 114.13 422.304 111.149 426.547 108.798C430.847 106.448 435.061 105.272 439.189 105.272C439.762 105.272 440.622 105.33 441.769 105.444L441.511 108.798C435.204 109.085 429.958 111.006 425.773 114.56C421.645 118.115 419.581 121.899 419.581 125.912C419.581 127.575 420.097 128.922 421.129 129.954C422.161 130.986 423.508 131.502 425.171 131.502C427.808 131.502 431.191 129.553 435.319 125.654ZM480.317 129.18L482.295 130.642C481.492 132.362 480.002 133.996 477.823 135.544C475.702 137.092 473.752 137.866 471.975 137.866C468.592 137.866 466.901 136.089 466.901 132.534C466.901 130.872 467.331 128.894 468.191 126.6L465.009 129.868C461.913 133.022 459.218 135.143 456.925 136.232C454.689 137.322 452.482 137.866 450.303 137.866C448.124 137.866 446.462 137.264 445.315 136.06C444.226 134.799 443.681 133.079 443.681 130.9C443.681 126.887 445.229 122.931 448.325 119.032C451.421 115.076 455.377 111.866 460.193 109.4C465.009 106.935 469.825 105.674 474.641 105.616L474.813 108.454L471.201 109.228C465.984 110.375 461.368 112.668 457.355 116.108C453.399 119.548 451.421 122.988 451.421 126.428C451.421 129.811 452.797 131.502 455.549 131.502C458.129 131.502 461.311 129.696 465.095 126.084C468.879 122.472 472.032 118.23 474.555 113.356L478.167 115.506C474.612 122.673 472.835 127.231 472.835 129.18C472.835 129.983 473.093 130.671 473.609 131.244C474.182 131.76 474.727 132.018 475.243 132.018C475.816 132.018 476.189 131.99 476.361 131.932C476.533 131.875 476.705 131.818 476.877 131.76C477.049 131.646 477.25 131.502 477.479 131.33C477.766 131.158 477.995 130.986 478.167 130.814C478.396 130.642 478.74 130.384 479.199 130.04C479.658 129.696 480.03 129.41 480.317 129.18ZM511.857 104.24L511.083 107.594C510.109 107.48 508.847 107.422 507.299 107.422C501.566 107.422 498.699 109.314 498.699 113.098C498.699 113.901 499.846 116.252 502.139 120.15C504.49 124.049 505.665 126.658 505.665 127.976C505.665 131.072 504.605 133.509 502.483 135.286C500.419 137.006 497.639 137.866 494.141 137.866C489.325 137.866 485.455 135.2 482.531 129.868L485.799 127.546C486.602 128.177 487.462 128.951 488.379 129.868C489.297 130.728 489.985 131.33 490.443 131.674C491.533 132.649 492.737 133.136 494.055 133.136C495.374 133.136 496.521 132.678 497.495 131.76C498.47 130.786 498.957 129.61 498.957 128.234C498.957 126.801 497.696 124.164 495.173 120.322C492.708 116.481 491.475 113.786 491.475 112.238C491.475 109.429 492.651 107.279 495.001 105.788C497.409 104.298 500.534 103.552 504.375 103.552C508.274 103.552 510.768 103.782 511.857 104.24Z" fill="#016A0C"/>
</svg>
